<svg width="48" height="48" viewBox="0 0 48 48" fill="none" xmlns="http://www.w3.org/2000/svg">
<rect width="48" height="48" rx="6" fill="#202024"/>
<path fill-rule="evenodd" clip-rule="evenodd" d="M16.4249 17.625H31.5749V18.75L31.5802 17.625C32.0381 17.6272 32.4796 17.796 32.8221 18.1C33.1646 18.404 33.3847 18.8223 33.4413 19.2767L33.443 19.2916L34.774 31.289C34.774 31.2896 34.7741 31.2901 34.7742 31.2906C34.8035 31.5515 34.7777 31.8156 34.6985 32.0659C34.6191 32.3167 34.4878 32.548 34.3132 32.7447C34.1385 32.9415 33.9245 33.0992 33.6848 33.2078C33.4453 33.3164 33.1855 33.3734 32.9224 33.375L32.9155 33.375H15.0773C14.8143 33.3734 14.5545 33.3164 14.3149 33.2078C14.0753 33.0992 13.8612 32.9415 13.6866 32.7447C13.512 32.548 13.3807 32.3167 13.3013 32.0659C13.2221 31.8157 13.1963 31.5516 13.2256 31.2907C13.2256 31.2902 13.2257 31.2896 13.2258 31.289L14.5567 19.2916L14.5585 19.2767C14.615 18.8223 14.8351 18.404 15.1776 18.1C15.5201 17.796 15.9616 17.6272 16.4196 17.625L16.4249 17.625ZM31.2439 19.875H16.7558L15.5078 31.125H32.492L31.2439 19.875Z" fill="#8D8D99"/>
<path fill-rule="evenodd" clip-rule="evenodd" d="M24 16.125C23.3038 16.125 22.6361 16.4016 22.1438 16.8938C21.6516 17.3861 21.375 18.0538 21.375 18.75V21.75C21.375 22.3713 20.8713 22.875 20.25 22.875C19.6287 22.875 19.125 22.3713 19.125 21.75V18.75C19.125 17.4571 19.6386 16.2171 20.5529 15.3029C21.4671 14.3886 22.7071 13.875 24 13.875C25.2929 13.875 26.5329 14.3886 27.4471 15.3029C28.3614 16.2171 28.875 17.4571 28.875 18.75V21.75C28.875 22.3713 28.3713 22.875 27.75 22.875C27.1287 22.875 26.625 22.3713 26.625 21.75V18.75C26.625 18.0538 26.3484 17.3861 25.8562 16.8938C25.3639 16.4016 24.6962 16.125 24 16.125Z" fill="#8D8D99"/>
</svg>
