<svg width="64" height="64" viewBox="0 0 64 64" fill="none" xmlns="http://www.w3.org/2000/svg">
<g filter="url(#filter0_d_4809_47)">
<rect x="4" width="56" height="56" rx="6" fill="#00875F" shape-rendering="crispEdges"/>
<path fill-rule="evenodd" clip-rule="evenodd" d="M21.9 19.5H42.1V21L42.107 19.5C42.7177 19.5029 43.3063 19.728 43.763 20.1333C44.2197 20.5386 44.5132 21.0964 44.5885 21.7023L44.5909 21.7221L46.3655 37.7187C46.3656 37.7194 46.3656 37.7201 46.3657 37.7209C46.4048 38.0687 46.3704 38.4209 46.2648 38.7546C46.1589 39.0889 45.9839 39.3973 45.751 39.6596C45.5182 39.9219 45.2328 40.1323 44.9133 40.2771C44.5938 40.4219 44.2475 40.4978 43.8967 40.5L43.8875 40.5H20.1033C19.7525 40.4978 19.4062 40.4219 19.0867 40.2771C18.7672 40.1323 18.4818 39.9219 18.249 39.6596C18.0161 39.3973 17.8411 39.0889 17.7352 38.7546C17.6296 38.4209 17.5952 38.0687 17.6343 37.7209C17.6344 37.7202 17.6344 37.7195 17.6345 37.7187L19.4091 21.7221L19.4115 21.7023C19.4869 21.0964 19.7803 20.5386 20.237 20.1333C20.6937 19.728 21.2824 19.5029 21.893 19.5L21.9 19.5ZM41.6588 22.5H22.3413L20.6772 37.5H43.3228L41.6588 22.5Z" fill="white"/>
<path fill-rule="evenodd" clip-rule="evenodd" d="M32 17.5C31.0717 17.5 30.1815 17.8687 29.5251 18.5251C28.8687 19.1815 28.5 20.0717 28.5 21V25C28.5 25.8284 27.8284 26.5 27 26.5C26.1716 26.5 25.5 25.8284 25.5 25V21C25.5 19.2761 26.1848 17.6228 27.4038 16.4038C28.6228 15.1848 30.2761 14.5 32 14.5C33.7239 14.5 35.3772 15.1848 36.5962 16.4038C37.8152 17.6228 38.5 19.2761 38.5 21V25C38.5 25.8284 37.8284 26.5 37 26.5C36.1716 26.5 35.5 25.8284 35.5 25V21C35.5 20.0717 35.1313 19.1815 34.4749 18.5251C33.8185 17.8687 32.9283 17.5 32 17.5Z" fill="white"/>
</g>
<defs>
<filter id="filter0_d_4809_47" x="0" y="0" width="64" height="64" filterUnits="userSpaceOnUse" color-interpolation-filters="sRGB">
<feFlood flood-opacity="0" result="BackgroundImageFix"/>
<feColorMatrix in="SourceAlpha" type="matrix" values="0 0 0 0 0 0 0 0 0 0 0 0 0 0 0 0 0 0 127 0" result="hardAlpha"/>
<feOffset dy="4"/>
<feGaussianBlur stdDeviation="2"/>
<feComposite in2="hardAlpha" operator="out"/>
<feColorMatrix type="matrix" values="0 0 0 0 0 0 0 0 0 0 0 0 0 0 0 0 0 0 0.25 0"/>
<feBlend mode="normal" in2="BackgroundImageFix" result="effect1_dropShadow_4809_47"/>
<feBlend mode="normal" in="SourceGraphic" in2="effect1_dropShadow_4809_47" result="shape"/>
</filter>
</defs>
</svg>
